<svg xmlns="http://www.w3.org/2000/svg" width="1982" height="360" viewBox="0 0 1982.46 360.00" role="img" aria-label="Xionprotech">
  <title>Xionprotech</title>
  <defs>
    <linearGradient id="lkField" x1="0" y1="0" x2="0" y2="1">
      <stop offset="0" stop-color="#141B2E"/><stop offset="1" stop-color="#0A0E1A"/>
    </linearGradient>
    <linearGradient id="lkAccent" x1="0" y1="0" x2="1" y2="1">
      <stop offset="0" stop-color="#4F8CFF"/><stop offset="0.55" stop-color="#3D6DFF"/><stop offset="1" stop-color="#6E5BFF"/>
    </linearGradient>
    <linearGradient id="lkWhite" x1="0" y1="0" x2="1" y2="1">
      <stop offset="0" stop-color="#FFFFFF"/><stop offset="1" stop-color="#C9D6F2"/>
    </linearGradient>
    <linearGradient id="lkWmAccent" x1="0" y1="0" x2="1" y2="1">
      <stop offset="0" stop-color="#4F8CFF"/><stop offset="1" stop-color="#6E5BFF"/>
    </linearGradient>
  </defs>
  <g transform="translate(44.000,60.000) scale(0.234375)">
    <rect x="0" y="0" width="1024" height="1024" rx="228" ry="228" fill="url(#lkField)"/>
    <rect x="4" y="4" width="1016" height="1016" rx="224" ry="224" fill="none" stroke="#2A3552" stroke-width="2" opacity="0.55"/>
    <path fill="url(#lkWhite)" d="M 236 268 L 352 268 L 540 512 L 352 756 L 236 756 L 424 512 Z"/>
    <path fill="url(#lkAccent)" d="M 788 268 L 672 268 L 484 512 L 672 756 L 788 756 L 600 512 Z"/>
  </g>
  <g transform="matrix(0.097087,0,0,-0.097087,377.0000,251.4078)">
    <g fill="url(#lkWmAccent)"><path transform="translate(0.000,0)" d="M72 1471H387L695 1000L1006 1471H1321L853 759L1350 0H1035L695 517L358 0H41L538 759Z"/></g>
    <g fill="#FFFFFF">
      <path transform="translate(1543.000,0)" d="M148 1471H426V0H148Z"/>
      <path transform="translate(2266.000,0)" d="M863 1508Q1175 1508 1399.5 1282.0Q1624 1056 1624 731Q1624 409 1402.5 186.0Q1181 -37 865 -37Q534 -37 315.0 192.0Q96 421 96 736Q96 947 198.0 1124.0Q300 1301 478.5 1404.5Q657 1508 863 1508ZM860 1234Q656 1234 517.0 1092.0Q378 950 378 731Q378 487 553 345Q689 234 865 234Q1064 234 1204.0 378.0Q1344 522 1344 733Q1344 943 1203.0 1088.5Q1062 1234 860 1234Z"/>
      <path transform="translate(4136.000,0)" d="M169 1471H437L1068 503V1471H1348V0H1079L449 965V0H169Z"/>
      <path transform="translate(5801.000,0)" d="M167 1471H464Q705 1471 811.5 1426.5Q918 1382 979.5 1282.5Q1041 1183 1041 1044Q1041 890 960.5 788.0Q880 686 742 646Q661 623 447 623V0H167ZM447 896H536Q641 896 682.0 911.0Q723 926 746.5 960.5Q770 995 770 1044Q770 1129 704 1168Q656 1197 526 1197H447Z"/>
      <path transform="translate(7098.000,0)" d="M187 1471H484Q728 1471 831.5 1427.5Q935 1384 998.0 1283.0Q1061 1182 1061 1044Q1061 899 991.5 801.5Q922 704 782 654L1130 0H824L493 623H467V0H187ZM467 896H555Q689 896 739.5 931.0Q790 966 790 1047Q790 1095 765.0 1130.5Q740 1166 698.0 1181.5Q656 1197 544 1197H467Z"/>
      <path transform="translate(8436.000,0)" d="M863 1508Q1175 1508 1399.5 1282.0Q1624 1056 1624 731Q1624 409 1402.5 186.0Q1181 -37 865 -37Q534 -37 315.0 192.0Q96 421 96 736Q96 947 198.0 1124.0Q300 1301 478.5 1404.5Q657 1508 863 1508ZM860 1234Q656 1234 517.0 1092.0Q378 950 378 731Q378 487 553 345Q689 234 865 234Q1064 234 1204.0 378.0Q1344 522 1344 733Q1344 943 1203.0 1088.5Q1062 1234 860 1234Z"/>
      <path transform="translate(10306.000,0)" d="M23 1471H836V1195H568V0H284V1195H23Z"/>
      <path transform="translate(11316.000,0)" d="M169 1471H972V1197H447V931H972V662H447V275H972V0H169Z"/>
      <path transform="translate(12531.000,0)" d="M1520 1212 1324 1025Q1124 1236 874 1236Q663 1236 518.5 1092.0Q374 948 374 737Q374 590 438.0 476.0Q502 362 619.0 297.0Q736 232 879 232Q1001 232 1102.0 277.5Q1203 323 1324 443L1514 245Q1351 86 1206.0 24.5Q1061 -37 875 -37Q532 -37 313.5 180.5Q95 398 95 738Q95 958 194.5 1129.0Q294 1300 479.5 1404.0Q665 1508 879 1508Q1061 1508 1229.5 1431.0Q1398 1354 1520 1212Z"/>
      <path transform="translate(14278.000,0)" d="M167 1471H451V916H943V1471H1226V0H943V645H451V0H167Z"/>
    </g>
  </g>
</svg>
